nRows=37
nColumns=19
inDegrees=yes
endheader
time	ground_force_vx	ground_force_vy	ground_force_vz	ground_force_px	ground_force_py	ground_force_pz	1_ground_force_vx	1_ground_force_vy	1_ground_force_vz	1_ground_force_px	1_ground_force_py	1_ground_force_pz	ground_torque_x	ground_torque_y	ground_torque_z	1_ground_torque_x	1_ground_torque_y	1_ground_torque_z
2.986	-0.161512023380842	0.215864882333815	0.0730067896105497	0.300000012	0	0.609999999	-0.0509603121213868	-0.13415961850537	-0.000768466791533445	0.300000012	0	0.2050000005	-0.01528	0.035346	0.01528	-0	0.000721	0
2.987	-0.160027505001892	0.206313726436809	0.0756545435442876	0.300000012	0	0.609999999	-0.0509032776644408	-0.135739397996744	0.000333553588911522	0.300000012	0	0.2050000005	0.01142	0.024526	-0.01142	-0	0.006492	0
2.988	-0.158500622890901	0.196831496767515	0.0783539406356001	0.300000012	0	0.609999999	-0.0509635594384387	-0.137246084208458	0.00143576495690085	0.300000012	0	0.2050000005	0.333855	0.02669	-0.333855	-0	0.012263	0
2.989	-0.156949024921314	0.187622268846071	0.0810661700013948	0.300000012	0	0.609999999	-0.0511729608371028	-0.138623247927591	0.00251580385863343	0.300000012	0	0.2050000005	0.191284	0.031739	-0.191284	-0	0.005049	0
2.99	-0.155390393041047	0.178872937482862	0.0837530613063459	0.300000012	0	0.609999999	-0.0515581562883343	-0.139813442607723	0.00355298870141581	0.300000012	0	0.2050000005	-0.017405	0.022362	0.017405	-0	0.01587	0
2.991	-0.153842385806157	0.170745121124433	0.0863776583568492	0.300000012	0	0.609999999	-0.0521380707580217	-0.14076015004972	0.00452904687940678	0.300000012	0	0.2050000005	-0.023191	0.025969	0.023191	-0	-0.000721	0
2.992	-0.152322453370721	0.16336890452851	0.0889048564962158	0.300000012	0	0.609999999	-0.0529219073331074	-0.141409996063174	0.00542856123782717	0.300000012	0	0.2050000005	32.84927	0.020198	-32.84927	-0	-0.000721	0
2.993	-0.150847525098401	0.15683867095333	0.0913020845745521	0.300000012	0	0.609999999	-0.0539079128443031	-0.14171517027107	0.00623912959918567	0.300000012	0	0.2050000005	-0.034541	0.020198	0.034541	-0	0.010099	0
2.994	-0.149433583788409	0.15121114044008	0.0935399992962695	0.300000012	0	0.609999999	-0.0550829262522165	-0.141635935016184	0.0069512639247611	0.300000012	0	0.2050000005	0.214656	0.027411	-0.214656	-0	0.005771	0
2.995	-0.148095153679158	0.146505591147162	0.095593150182029	0.300000012	0	0.609999999	-0.0564227042122891	-0.141143067517526	0.00755808527268284	0.300000012	0	0.2050000005	0.054495	0.022362	-0.054495	-0	0.013706	0
2.996	-0.146844740381879	0.142706106888704	0.0974405691463539	0.300000012	0	0.609999999	-0.0578929675184303	-0.140220053460813	0.00805489278080818	0.300000012	0	0.2050000005	-0.027002	0.018755	0.027002	-0	0.000721	0
2.997	-0.145692268553084	0.139765575137768	0.0990662407986629	0.300000012	0	0.609999999	-0.0594510661686959	-0.138864843101223	0.00843869628689538	0.300000012	0	0.2050000005	1.679371	0.018034	-1.679371	-0	0.007935	0
2.998	-0.144644566765062	0.137611063219877	0.100459417974821	0.300000012	0	0.609999999	-0.0610481244671382	-0.137090993937345	0.0087078012924583	0.300000012	0	0.2050000005	2.333931	0.028133	-2.333931	-0	0.010099	0
2.999	-0.143704948444497	0.136150132010897	0.101614760528237	0.300000012	0	0.609999999	-0.0626315044668215	-0.134928055901505	0.0088615219516828	0.300000012	0	0.2050000005	-0.057306	0.028133	0.057306	-0	0.007935	0
3	-0.142872932995748	0.135277610158881	0.102532291856199	0.300000012	0	0.609999999	-0.0641474177213661	-0.132421102932149	0.00890007449285922	0.300000012	0	0.2050000005	-0.026104	0.028133	0.026104	-0	0.008656	0
3.001	-0.142144142582626	0.134882349766744	0.103217184148703	0.300000012	0	0.609999999	-0.0655435210750434	-0.129629374663346	0.00882467319027342	0.300000012	0	0.2050000005	-0.022573	0.031739	0.022573	-0	0.010099	0
3.002	-0.141510398004358	0.134853516578775	0.103679397027118	0.300000012	0	0.609999999	-0.0667713496401816	-0.126624058550252	0.00863781784913917	0.300000012	0	0.2050000005	-0.021035	0.031739	0.021035	-0	0.01587	0
3.003	-0.140960022502307	0.135086031533443	0.103933202840001	0.300000012	0	0.609999999	-0.0677884657363367	-0.123485309739253	0.00834373033351148	0.300000012	0	0.2050000005	-0.018781	0.025969	0.018781	-0	0.008656	0
3.004	-0.140478346425563	0.135484870895484	0.103996634293135	0.300000012	0	0.609999999	-0.0685602326549973	-0.120298666578319	0.0079488724245487	0.300000012	0	0.2050000005	-0.029984	0.032461	0.029984	-0	0.010099	0
3.005	-0.140048390026672	0.135968041332335	0.103890886499785	0.300000012	0	0.609999999	-0.0690611531277667	-0.117151067612651	0.00746246188258289	0.300000012	0	0.2050000005	-0.0132	0.033182	0.0132	-0	0.010099	0
3.006	-0.13965168782459	0.136468164677303	0.103639697274328	0.300000012	0	0.609999999	-0.0692757413361421	-0.114126706684476	0.00689690006937543	0.300000012	0	0.2050000005	-0.013223	0.027411	0.013223	-0	0.007935	0
3.007	-0.139269207197306	0.136932724337578	0.103268718658566	0.300000012	0	0.609999999	-0.0691989220986597	-0.111302974221132	0.00626803289541621	0.300000012	0	0.2050000005	0.000712	0.031018	-0.000712	-0	0.010099	0
3.008	-0.138882306845243	0.137323131223708	0.102804881692908	0.300000012	0	0.609999999	-0.0688359705205956	-0.108746725331924	0.00559518524326218	0.300000012	0	0.2050000005	-0.048352	0.02164	0.048352	-0	0.005771	0
3.009	-0.138473677675863	0.137612852765644	0.10227574766435	0.300000012	0	0.609999999	-0.0682020201100458	-0.106511091378482	0.00490093402222693	0.300000012	0	0.2050000005	-0.021838	0.025247	0.021838	-0	0.004328	0
3.01	-0.13802820937364	0.137784907187394	0.101708834388232	0.300000012	0	0.609999999	-0.0673211783735893	-0.104633014898959	0.00421061266145082	0.300000012	0	0.2050000005	1.131671	0.02164	-1.131671	-0	0.009378	0
3.011	-0.137533730230233	0.137829052747063	0.101130906718847	0.300000012	0	0.609999999	-0.0662252979516269	-0.103131642150757	0.00355156634518343	0.300000012	0	0.2050000005	0.351684	0.01587	-0.351684	-0	0.009378	0
3.012	-0.136981575477528	0.137738997456406	0.100567226742221	0.300000012	0	0.609999999	-0.0649524600774579	-0.102007656781019	0.0029521996342012	0.300000012	0	0.2050000005	3.435878	0.020198	-3.435878	-0	0.007935	0
3.013	-0.136366949974964	0.137509921506265	0.100040770263116	0.300000012	0	0.609999999	-0.0635452364872391	-0.101243585376219	0.00244087450234417	0.300000012	0	0.2050000005	0.107264	0.02164	-0.107264	-0	0.005771	0
3.014	-0.13568906392627	0.137136547571413	0.0995714304961334	0.300000012	0	0.609999999	-0.0620488057573542	-0.100805053503648	0.00204472672900139	0.300000012	0	0.2050000005	-0.016157	0.020919	0.016157	-0	0.007935	0
3.015	-0.134951034396732	0.136611920409641	0.0991752446874366	0.300000012	0	0.609999999	-0.0605090092323281	-0.100642921568489	0.00178847250246006	0.300000012	0	0.2050000005	-0.023151	0.017312	0.023151	-0	0.011542	0
3.016	-0.134159559889387	0.135926974372501	0.0988636917083478	0.300000012	0	0.609999999	-0.0589704383580156	-0.100696185278721	0.00169327594825149	0.300000012	0	0.2050000005	9.702894	0.020919	-9.702894	-0	0.011542	0
3.017	-0.133324389479669	0.135070882913583	0.098643115733077	0.300000012	0	0.609999999	-0.0574746473431154	-0.100895487325981	0.00177574300862338	0.300000012	0	0.2050000005	17.984852	0.018755	-17.984852	-0	0.009378	0
3.018	-0.132457621492156	0.134032104364967	0.0985143311516495	0.300000012	0	0.609999999	-0.0560585810601738	-0.101167056330004	0.00204709830083667	0.300000012	0	0.2050000005	0.051289	0.024526	-0.051289	-0	0.007213	0
3.019	-0.131572878735738	0.132799968828597	0.0984724564397844	0.300000012	0	0.609999999	-0.0547532972136708	-0.101436867198968	0.00251258972256456	0.300000012	0	0.2050000005	-0.02532	0.025247	0.02532	-0	0.009378	0
3.02	-0.130684416817733	0.131366597189965	0.0985070107324962	0.300000012	0	0.609999999	-0.0535830442834993	-0.1016348047684	0.00317115116495308	0.300000012	0	0.2050000005	0.654623	0.019476	-0.654623	-0	0.005049	0
3.021	-0.129806227695505	0.129728909664689	0.098602288299824	0.300000012	0	0.609999999	-0.0525647337905476	-0.101698610803533	0.00401533753302853	0.300000012	0	0.2050000005	-0.025395	0.023083	0.025395	-0	0.01082	0
3.022	-0.128951201201198	0.127890471427511	0.098738005559494	0.300000012	0	0.609999999	-0.0517078190158117	-0.101577403958996	0.00503152951571909	0.300000012	0	0.2050000005	-0.021257	0.025247	0.021257	-0	0.001443	0
